PathFileType	4	(X/Y/Z)	\\147.46.242.158\로컬 디스크 (e)\MOCAP Data\Iguana Capture\iguana\Project 2\Capture day 6 after broken\Session 2\Take05 good walk.trc
DataRate	CameraRate	NumFrames	NumMarkers	Units	OrigDataRate	OrigDataStartFrame	OrigNumFrames
120.0	120.0	8	23	mm	120.0	292	5093
Frame#	Time	ana:head1			ana:head2			ana:bone1			ana:bone2			ana:bone3			ana:tail1			ana:tail2			ana:tail3			ana:tail4			ana:Rforefoot1			ana:Rforefoot2			ana:Rforefoot3			ana:Lforefoot1			ana:Lforefoot2			ana:Lforefoot3			ana:RhindLeg1			ana:RhindLeg2			ana:RhindLeg3			ana:RhindLeg4			ana:LhindLeg1			ana:LhindLeg2			ana:LhindLeg3			ana:LhindLeg4			
		X1	Y1	Z1	X2	Y2	Z2	X3	Y3	Z3	X4	Y4	Z4	X5	Y5	Z5	X6	Y6	Z6	X7	Y7	Z7	X8	Y8	Z8	X9	Y9	Z9	X10	Y10	Z10	X11	Y11	Z11	X12	Y12	Z12	X13	Y13	Z13	X14	Y14	Z14	X15	Y15	Z15	X16	Y16	Z16	X17	Y17	Z17	X18	Y18	Z18	X19	Y19	Z19	X20	Y20	Z20	X21	Y21	Z21	X22	Y22	Z22	X23	Y23	Z23	

4291	35.750	-452.20853	-193.28084	49.99402	-449.12692	-182.66777	50.40191	-445.70328	-162.15167	45.46986	-443.00830	-135.05661	45.17704	-442.32010	-97.63558	39.13560	-436.24896	-66.02200	32.28938	-433.06360	-32.92038	23.19226	-427.81326	11.16130	13.47030	-425.39920	44.62590	10.46147	-457.93369	-163.31593	29.64857	-469.75729	-157.17781	21.15383	-464.98935	-167.59999	6.62502	-433.30325	-164.53920	31.69049	-422.38141	-153.39847	31.02827	-418.50861	-150.41046	16.22769	-449.41061	-93.07854	33.26045	-460.99951	-82.45164	30.48429	-464.82312	-61.94740	26.97486	-469.77094	-55.69825	15.37937	-430.93951	-99.69394	31.83551	-416.43045	-106.39827	24.18277	-416.96304	-94.82987	10.22392	-414.53677	-107.60722	7.91452	
4292	35.758	-452.46246	-194.24492	50.13101	-449.35956	-183.62534	50.51911	-445.80832	-163.15962	45.56948	-442.71780	-136.08356	45.28522	-442.11032	-98.64467	39.19136	-436.42236	-66.99421	32.34437	-433.36902	-33.87365	23.18216	-428.06604	10.18059	13.43785	-425.54105	43.62831	10.46631	-458.09064	-163.97066	29.79273	-469.71210	-157.37857	21.34112	-464.87927	-167.48465	6.44690	-433.63058	-165.98836	32.08263	-422.33530	-155.42915	31.88230	-417.94882	-152.26378	16.71822	-449.26901	-94.22472	33.33757	-461.02380	-83.72935	30.62115	-465.23785	-63.21206	27.18960	-469.87213	-56.53693	15.63797	-430.75323	-100.54140	31.78735	-416.03595	-106.61542	23.93998	-416.88101	-94.82574	10.26131	-414.51953	-107.59617	8.01007	
4293	35.767	-452.74493	-195.18327	50.28404	-449.61765	-184.56145	50.64362	-445.92325	-164.14622	45.67850	-442.41592	-137.09988	45.37928	-441.87317	-99.65448	39.23108	-436.57562	-67.95429	32.38492	-433.65958	-34.82564	23.15474	-428.31396	9.19833	13.39331	-425.68356	42.63193	10.47458	-458.24268	-164.60434	29.92727	-469.64517	-157.58292	21.52221	-464.75946	-167.36208	6.26611	-433.97635	-167.41982	32.45205	-422.33212	-157.50526	32.69546	-417.37823	-154.19237	17.22992	-449.11084	-95.36385	33.40113	-461.03568	-85.00639	30.74411	-465.61780	-64.49281	27.38505	-469.91925	-57.41850	15.88420	-430.54755	-101.36282	31.74119	-415.65643	-106.82620	23.70972	-416.79532	-94.80188	10.34880	-414.50934	-107.59818	8.09366	
4294	35.775	-453.05380	-196.09892	50.44363	-449.90094	-185.48055	50.76787	-446.04620	-165.11345	45.78976	-442.10522	-138.10869	45.45329	-441.61487	-100.66994	39.25354	-436.71609	-68.90324	32.41021	-433.93637	-35.77762	23.11238	-428.55545	8.21402	13.33969	-425.82660	41.63639	10.48692	-458.38974	-165.21904	30.04539	-469.56000	-157.78912	21.69022	-464.63992	-167.24100	6.09630	-434.33737	-168.83504	32.79084	-422.37320	-159.62148	33.44884	-416.61884	-156.79242	17.92204	-448.94232	-96.49914	33.45406	-461.04544	-86.29395	30.86566	-465.94290	-65.80177	27.57002	-469.91592	-58.34896	16.12742	-430.32660	-102.15962	31.69765	-415.29721	-107.03430	23.49303	-416.70514	-94.75179	10.48311	-414.50592	-107.61054	8.14875	
4295	35.783	-453.38550	-196.99449	50.60095	-450.20825	-186.38675	50.88681	-446.17639	-166.06314	45.89691	-441.79074	-139.11200	45.50414	-441.34402	-101.69379	39.25900	-436.85275	-69.84259	32.41990	-434.20282	-36.73034	23.05812	-428.78964	7.22783	13.28038	-425.97040	40.64163	10.50358	-458.53351	-165.81715	30.14342	-469.46207	-157.99559	21.84053	-464.53009	-167.13043	5.95110	-434.71152	-170.23634	33.09426	-422.45911	-161.77124	34.12518	-415.95325	-159.79079	18.70521	-448.77161	-97.63419	33.49973	-461.06671	-87.60732	31.00082	-466.19357	-67.15270	27.75183	-469.87552	-59.33968	16.37768	-430.09680	-102.93460	31.65705	-414.96353	-107.24212	23.29027	-416.60968	-94.66994	10.65633	-414.50818	-107.62847	8.16368	
4296	35.792	-453.73526	-197.87166	50.74840	-450.53802	-187.28300	50.99823	-446.31375	-166.99658	45.99487	-441.47922	-140.11040	45.53169	-441.07028	-102.72594	39.24907	-436.99518	-70.77405	32.41393	-434.46396	-37.68357	22.99522	-429.01691	6.24102	13.21868	-426.11517	39.64834	10.52447	-458.67661	-166.40094	30.22091	-469.35745	-158.20076	21.97100	-464.43777	-167.03889	5.84218	-435.09784	-171.62624	33.36051	-422.58966	-163.94618	34.70904	-415.73468	-163.51878	19.56671	-448.60791	-98.77247	33.54132	-461.11496	-88.96483	31.16531	-466.35416	-68.56011	27.93499	-469.82187	-60.40871	16.64459	-429.86639	-103.69112	31.61935	-414.66013	-107.45081	23.10135	-416.50937	-94.55318	10.85677	-414.51489	-107.64620	8.13359	
4297	35.800	-454.09747	-198.73087	50.88018	-450.88800	-188.17050	51.10254	-446.45908	-167.91388	46.08006	-441.17899	-141.10271	45.53832	-440.80417	-103.76324	39.22626	-437.15295	-71.69891	32.39226	-434.72638	-38.63585	22.92660	-429.23865	5.25605	13.15735	-426.26132	38.65828	10.54912	-458.82248	-166.97206	30.28030	-469.25229	-158.40320	22.08179	-464.36862	-166.97339	5.77757	-435.49643	-173.00650	33.59002	-422.76364	-166.13606	35.18695	-415.49756	-167.02585	20.36620	-448.46075	-99.91685	33.58137	-461.20557	-90.38676	31.37339	-466.41602	-70.03855	28.12016	-469.78784	-61.58164	16.93632	-429.64453	-104.43245	31.58410	-414.39096	-107.66025	22.92600	-416.40610	-94.40210	11.07016	-414.52441	-107.65813	8.06121	
4298	35.808	-454.46625	-199.57114	50.99258	-451.25537	-189.04829	51.20211	-446.61362	-168.81395	46.15051	-440.89847	-142.08582	45.52837	-440.55579	-104.79953	39.19348	-437.33466	-72.61773	32.35467	-434.99765	-39.58436	22.85443	-429.45752	4.27670	13.09834	-426.40955	37.67448	10.57681	-458.97455	-167.53140	30.32614	-469.15161	-158.60150	22.17500	-464.32565	-166.93864	5.76057	-435.90808	-174.37794	33.78483	-422.97910	-168.32886	35.54778	-415.49564	-170.70946	21.14311	-448.33936	-101.06920	33.62123	-461.35190	-91.89353	31.63579	-466.38037	-71.60216	28.30367	-469.81354	-62.89187	17.25877	-429.44086	-105.16095	31.55045	-414.15918	-107.86927	22.76397	-416.30408	-94.22179	11.28117	-414.53513	-107.65981	7.95644	
